<svg width="24" height="24" viewBox="0 0 24 24" fill="none" xmlns="http://www.w3.org/2000/svg">
<path d="M20.6227 18.1447C20.2996 18.9133 19.917 19.6208 19.4738 20.2713C18.8697 21.158 18.3751 21.7719 17.9938 22.1127C17.4029 22.6722 16.7698 22.9587 16.0917 22.975C15.605 22.975 15.018 22.8324 14.3348 22.5432C13.6492 22.2553 13.0192 22.1127 12.4432 22.1127C11.8391 22.1127 11.1911 22.2553 10.4981 22.5432C9.80402 22.8324 9.24486 22.9832 8.81735 22.9981C8.16718 23.0266 7.51913 22.7319 6.87226 22.1127C6.45939 21.742 5.94297 21.1064 5.32433 20.2061C4.66057 19.2446 4.11488 18.1297 3.68737 16.8587C3.22952 15.4857 3 14.1563 3 12.8692C3 11.3948 3.30945 10.1232 3.92928 9.0576C4.41642 8.20166 5.06447 7.52647 5.87557 7.03081C6.68666 6.53514 7.56305 6.28256 8.50685 6.2664C9.02326 6.2664 9.70047 6.43085 10.542 6.75405C11.3812 7.07834 11.9201 7.24279 12.1563 7.24279C12.3329 7.24279 12.9315 7.0505 13.9463 6.66714C14.9059 6.31162 15.7158 6.16441 16.3793 6.2224C18.1772 6.37178 19.5279 7.10142 20.4262 8.41595C18.8183 9.41896 18.0229 10.8238 18.0387 12.626C18.0532 14.0297 18.5479 15.1979 19.52 16.1254C19.9606 16.5558 20.4526 16.8885 21 17.1248C20.8813 17.4793 20.756 17.8188 20.6227 18.1447V18.1447ZM16.4993 1.44013C16.4993 2.54038 16.1089 3.56768 15.3306 4.51854C14.3915 5.64892 13.2555 6.30211 12.0236 6.19904C12.0079 6.06705 11.9988 5.92812 11.9988 5.78214C11.9988 4.7259 12.4454 3.59552 13.2386 2.67127C13.6346 2.20331 14.1382 1.81421 14.7489 1.50381C15.3583 1.19805 15.9348 1.02896 16.4769 1C16.4927 1.14709 16.4993 1.29418 16.4993 1.44011V1.44013Z" fill="white"/>
</svg>
