<svg width="24" height="24" viewBox="0 0 24 24" fill="none" xmlns="http://www.w3.org/2000/svg">
<path fill-rule="evenodd" clip-rule="evenodd" d="M12.1805 6.99598L21.3194 4L18.9722 9.30717L22 12.3459L10.8264 16.0053V13.0593L2.32634 15.8484V7.26705L12.1805 4.03567V6.99598ZM3.68745 13.9295L10.8264 11.5898V5.94739L3.68745 8.28711V13.9295ZM12.1805 14.1007L19.4722 11.7111L17.3542 9.59963L18.8958 6.26125L12.1805 8.46544V14.1007Z" fill="white"/>
<path d="M2 18.5091C2 17.6888 2.65278 17.0183 3.45139 17.0183C4.25695 17.0183 4.90279 17.6888 4.90279 18.5091C4.90279 19.3295 4.25001 20 3.45139 20C2.65278 20 2 19.3295 2 18.5091Z" fill="white"/>
</svg>
