<svg width="24" height="24" viewBox="0 0 24 24" fill="none" xmlns="http://www.w3.org/2000/svg">
<path fill-rule="evenodd" clip-rule="evenodd" d="M16.1149 7.45704C15.0615 6.47232 13.6559 5.93587 12.2015 5.95791C9.54006 5.95791 7.27973 7.7179 6.4738 10.0878C6.04648 11.3297 6.04648 12.6746 6.4738 13.9165H6.47754C7.28721 16.2828 9.54379 18.0428 12.2052 18.0428C13.579 18.0428 14.7585 17.6983 15.6726 17.0899V17.0875C16.7484 16.3893 17.4831 15.2907 17.7117 14.0488H12.2015V10.1981H21.8238C21.9438 10.8668 22 11.5503 22 12.23C22 15.2714 20.8911 17.8428 18.9617 19.5844L18.9637 19.586C17.2731 21.1145 14.9528 22 12.2015 22C8.34428 22 4.81697 19.8689 3.08517 16.4922C1.63827 13.6667 1.63828 10.3377 3.08518 7.51218C4.81698 4.1318 8.34428 2.00067 12.2015 2.00067C14.7354 1.97128 17.1832 2.90456 19.0274 4.60209L16.1149 7.45704Z" fill="white"/>
</svg>
