<svg width="24" height="24" viewBox="0 0 24 24" fill="none" xmlns="http://www.w3.org/2000/svg">
<path d="M13.2812 12.0001C13.2812 15.3138 10.7558 18 7.6407 18C4.52561 18 2 15.3132 2 12.0001C2 8.68705 4.52542 6 7.6407 6C10.756 6 13.2812 8.68644 13.2812 12.0001Z" fill="white"/>
<path d="M19.469 12.0001C19.469 15.1192 18.2063 17.6487 16.6487 17.6487C15.091 17.6487 13.8283 15.1192 13.8283 12.0001C13.8283 8.88101 15.0908 6.35147 16.6485 6.35147C18.2061 6.35147 19.469 8.8802 19.469 12.0001Z" fill="white"/>
<path d="M22 12.0001C22 14.794 21.556 17.0604 21.0081 17.0604C20.4602 17.0604 20.0163 14.7947 20.0163 12.0001C20.0163 9.20554 20.4604 6.93981 21.0081 6.93981C21.5558 6.93981 22 9.20534 22 12.0001Z" fill="white"/>
</svg>
