<svg width="24" height="24" viewBox="0 0 24 24" fill="none" xmlns="http://www.w3.org/2000/svg">
<path d="M9.70761 12C9.13451 12 8.66667 12.4678 8.66667 13.0409C8.66667 13.614 9.13451 14.0819 9.70761 14.0819C10.2807 14.0819 10.7485 13.614 10.7485 13.0409C10.7485 12.4678 10.2807 12 9.70761 12Z" fill="white"/>
<path d="M12.0117 16.5497C12.4094 16.5497 13.7661 16.5029 14.4795 15.7895C14.5848 15.6842 14.5848 15.5204 14.5029 15.4035C14.3977 15.2982 14.2222 15.2982 14.117 15.4035C13.6608 15.8479 12.7135 16.0117 12.0234 16.0117C11.3333 16.0117 10.3743 15.8479 9.92983 15.4035C9.82457 15.2982 9.64913 15.2982 9.54386 15.4035C9.4386 15.5088 9.4386 15.6842 9.54386 15.7895C10.2456 16.4912 11.614 16.5497 12.0117 16.5497Z" fill="white"/>
<path d="M13.2515 13.0409C13.2515 13.614 13.7193 14.0819 14.2924 14.0819C14.8655 14.0819 15.3333 13.614 15.3333 13.0409C15.3333 12.4678 14.8655 12 14.2924 12C13.7193 12 13.2515 12.4678 13.2515 13.0409Z" fill="white"/>
<path fill-rule="evenodd" clip-rule="evenodd" d="M22 12C22 17.5228 17.5228 22 12 22C6.47715 22 2 17.5228 2 12C2 6.47715 6.47715 2 12 2C17.5228 2 22 6.47715 22 12ZM17.2047 10.538C18.0117 10.538 18.6667 11.193 18.6667 12C18.6667 12.5965 18.3041 13.1111 17.8246 13.345C17.848 13.4854 17.8597 13.6257 17.8597 13.7778C17.8597 16.0234 15.2515 17.8362 12.0234 17.8362C8.79533 17.8362 6.18714 16.0234 6.18714 13.7778C6.18714 13.6257 6.19884 13.4737 6.22223 13.3333C5.70761 13.0994 5.35673 12.5965 5.35673 12C5.35673 11.193 6.0117 10.538 6.81872 10.538C7.20468 10.538 7.56726 10.7017 7.82457 10.9473C8.83041 10.2105 10.2222 9.75437 11.7778 9.70758L12.5146 6.2222C12.538 6.15203 12.5731 6.09355 12.6316 6.05846C12.6901 6.02337 12.7602 6.01168 12.8304 6.02337L15.2515 6.53799C15.4152 6.18711 15.7661 5.9532 16.1754 5.9532C16.7485 5.9532 17.2164 6.42103 17.2164 6.99413C17.2164 7.56723 16.7485 8.03507 16.1754 8.03507C15.614 8.03507 15.1579 7.59062 15.1345 7.04092L12.9708 6.58478L12.3041 9.70758C13.8246 9.76606 15.2047 10.2339 16.1988 10.9473C16.4561 10.69 16.807 10.538 17.2047 10.538Z" fill="white"/>
</svg>
