<svg width="24" height="24" viewBox="0 0 24 24" fill="none" xmlns="http://www.w3.org/2000/svg">
<path d="M9.59926 2.29193L9.82371 3.20109C8.93909 3.41972 8.09243 3.77026 7.31217 4.24093L6.83202 3.4369C7.69087 2.91679 8.62401 2.5307 9.59926 2.29193V2.29193ZM14.4007 2.29193L14.1763 3.20109C15.0609 3.41972 15.9076 3.77026 16.6878 4.24093L17.1737 3.4369C16.3126 2.91725 15.3776 2.5312 14.4007 2.29193V2.29193ZM3.43689 6.82918C2.91727 7.68929 2.53121 8.62329 2.29192 9.59926L3.20108 9.82371C3.41971 8.9391 3.77025 8.09243 4.24092 7.31217L3.43689 6.82918ZM2.93685 12C2.93679 11.5454 2.97098 11.0914 3.03914 10.642L2.11293 10.4999C1.96236 11.4933 1.96236 12.5038 2.11293 13.4973L3.03914 13.3581C2.97108 12.9086 2.93689 12.4546 2.93685 12V12ZM17.168 20.5603L16.6878 19.7591C15.9088 20.2302 15.063 20.5808 14.1791 20.7989L14.4036 21.7081C15.3776 21.467 16.3096 21.08 17.168 20.5603ZM21.0631 12C21.0631 12.4546 21.0289 12.9086 20.9609 13.3581L21.8871 13.4973C22.0376 12.5038 22.0376 11.4933 21.8871 10.4999L20.9609 10.642C21.029 11.0914 21.0632 11.5454 21.0631 12V12ZM21.7081 14.3979L20.7989 14.1734C20.5808 15.0591 20.2302 15.9068 19.7591 16.6878L20.5631 17.1708C21.0832 16.3099 21.4693 15.3749 21.7081 14.3979V14.3979ZM13.3581 20.9609C12.4578 21.0972 11.5422 21.0972 10.6419 20.9609L10.5027 21.8871C11.4952 22.0376 12.5048 22.0376 13.4973 21.8871L13.3581 20.9609ZM19.296 17.3754C18.756 18.1077 18.1085 18.7542 17.3754 19.2931L17.9322 20.0489C18.7397 19.4544 19.454 18.743 20.0517 17.9379L19.296 17.3754ZM17.3754 4.70404C18.1085 5.24399 18.756 5.89147 19.296 6.62462L20.0517 6.06209C19.4562 5.25629 18.7437 4.54386 17.9379 3.9483L17.3754 4.70404ZM4.70403 6.62462C5.24398 5.89147 5.89147 5.24399 6.62462 4.70404L6.06208 3.9483C5.25629 4.54386 4.54385 5.25629 3.94829 6.06209L4.70403 6.62462ZM20.5631 6.82918L19.7591 7.31217C20.2302 8.0912 20.5808 8.937 20.7989 9.82087L21.7081 9.59642C21.4688 8.62135 21.0827 7.68829 20.5631 6.82918V6.82918ZM10.6419 3.03915C11.5422 2.90276 12.4578 2.90276 13.3581 3.03915L13.4973 2.11294C12.5048 1.96235 11.4952 1.96235 10.5027 2.11294L10.6419 3.03915ZM5.18417 20.2989L3.24938 20.7478L3.70111 18.813L2.78912 18.5999L2.33738 20.5347C2.30912 20.6546 2.30478 20.779 2.32462 20.9006C2.34445 21.0223 2.38808 21.1388 2.45299 21.2436C2.5179 21.3483 2.60283 21.4392 2.70292 21.5111C2.80301 21.5831 2.9163 21.6345 3.03629 21.6626C3.17663 21.6939 3.32212 21.6939 3.46246 21.6626L5.39726 21.2166L5.18417 20.2989ZM2.98231 17.7646L3.89715 17.9749L4.20967 16.6338C3.75329 15.8683 3.41336 15.0391 3.20108 14.1734L2.29192 14.3979C2.49642 15.2265 2.80576 16.0256 3.21244 16.7759L2.98231 17.7646ZM7.35762 19.7932L6.01662 20.1057L6.2297 21.0205L7.21557 20.7904C7.96532 21.1983 8.76459 21.5077 9.59358 21.7109L9.81803 20.8018C8.9551 20.5867 8.12882 20.2449 7.36615 19.7875L7.35762 19.7932ZM12 3.87443C7.51104 3.87727 3.87726 7.51673 3.87726 12.0028C3.87973 13.5308 4.31194 15.0273 5.12451 16.3213L4.3432 19.6568L7.67583 18.8755C11.4744 21.2649 16.4918 20.1256 18.8812 16.3299C21.2705 12.5341 20.1341 7.51673 16.3384 5.12452C15.0389 4.30736 13.535 3.87402 12 3.87443" fill="white"/>
</svg>
