<svg width="24" height="24" viewBox="0 0 24 24" fill="none" xmlns="http://www.w3.org/2000/svg">
<path d="M21.9277 16.6304C21.7898 16.2464 21.5242 16.0389 21.2229 15.8729C21.1667 15.8418 21.1157 15.8106 21.0697 15.7899C20.9778 15.7432 20.8858 15.6965 20.7939 15.6498C19.8542 15.1414 19.1188 14.5084 18.6131 13.751C18.4701 13.5383 18.3425 13.31 18.2403 13.0765C18.1944 12.952 18.1995 12.8794 18.2301 12.8119C18.2608 12.7601 18.3016 12.7185 18.3527 12.6822C18.5161 12.5733 18.6795 12.4643 18.7919 12.3917C18.9911 12.2568 19.1545 12.153 19.2567 12.0804C19.6397 11.8054 19.9104 11.5149 20.0789 11.1881C20.3189 10.7315 20.3496 10.1971 20.1657 9.71466C19.9104 9.02983 19.2771 8.6096 18.5059 8.6096C18.3425 8.6096 18.1841 8.62516 18.0207 8.66148C17.9799 8.67185 17.9339 8.68223 17.893 8.69261C17.8981 8.22568 17.8879 7.73281 17.8471 7.24514C17.7041 5.53826 17.1116 4.64591 16.4988 3.93515C16.1055 3.48898 15.6459 3.11025 15.1301 2.81453C14.2006 2.27497 13.1434 2 11.9943 2C10.8452 2 9.79309 2.27497 8.86359 2.81453C8.34776 3.11025 7.88812 3.48898 7.49487 3.93515C6.88201 4.64591 6.29469 5.54345 6.14658 7.24514C6.10572 7.73281 6.09551 8.22568 6.10061 8.69261C6.05976 8.68223 6.0189 8.67185 5.97294 8.66148C5.81461 8.62516 5.65119 8.6096 5.49286 8.6096C4.72168 8.6096 4.0884 9.03502 3.83304 9.71466C3.64918 10.1971 3.67982 10.7315 3.91986 11.1881C4.0884 11.5149 4.35907 11.8054 4.74211 12.0804C4.84425 12.153 5.00258 12.2568 5.20686 12.3917C5.31411 12.4643 5.47243 12.5681 5.63076 12.6719C5.68694 12.7082 5.7329 12.7549 5.76865 12.8119C5.79929 12.8794 5.8044 12.952 5.75333 13.0869C5.65119 13.3152 5.52861 13.5383 5.38561 13.7458C4.89022 14.4825 4.17522 15.1102 3.26614 15.6135C2.78607 15.8729 2.28557 16.0441 2.07107 16.6304C1.91275 17.0713 2.01489 17.5694 2.41836 17.9948C2.56646 18.1505 2.74011 18.2853 2.92907 18.3891C3.32232 18.607 3.74111 18.7782 4.18032 18.8975C4.27225 18.9235 4.35397 18.9598 4.43057 19.0117C4.57868 19.1414 4.55825 19.3385 4.75233 19.6291C4.84936 19.7795 4.97704 19.9092 5.12004 20.013C5.53372 20.3035 5.99847 20.3191 6.48876 20.3398C6.93308 20.3554 7.43358 20.3761 8.01069 20.5681C8.25073 20.6459 8.49587 20.8016 8.78187 20.9831C9.47134 21.4137 10.4111 22 11.9892 22C13.5673 22 14.5121 21.4086 15.2067 20.978C15.4927 20.8016 15.7378 20.6459 15.9676 20.5681C16.5396 20.3761 17.0453 20.3554 17.4896 20.3398C17.9799 20.3191 18.4446 20.3035 18.8583 20.013C19.0319 19.8885 19.1749 19.7328 19.2771 19.546C19.4201 19.3022 19.415 19.131 19.5478 19.0117C19.6193 18.9598 19.701 18.9235 19.7827 18.9027C20.2219 18.7834 20.6509 18.6122 21.0493 18.3891C21.2484 18.2802 21.4323 18.1349 21.5855 17.9637L21.5906 17.9585C21.989 17.5435 22.086 17.0558 21.9277 16.6304ZM20.5283 17.393C19.6754 17.8703 19.1034 17.8184 18.6642 18.1089C18.2863 18.3528 18.511 18.882 18.2403 19.0739C17.9033 19.3074 16.9125 19.0584 15.6357 19.489C14.5785 19.8418 13.9095 20.8638 12.0096 20.8638C10.1097 20.8638 9.45602 19.847 8.38351 19.489C7.10673 19.0584 6.11594 19.3126 5.77886 19.0739C5.50819 18.882 5.72779 18.3528 5.35497 18.1089C4.91065 17.8184 4.34375 17.8703 3.49086 17.393C2.94439 17.0869 3.25593 16.9001 3.43468 16.8119C6.52962 15.2918 7.02501 12.9416 7.04544 12.7652C7.07097 12.5525 7.10162 12.3865 6.8718 12.1738C6.65219 11.9663 5.67161 11.3489 5.39583 11.1569C4.9464 10.8353 4.74722 10.5188 4.89533 10.1245C4.99747 9.85473 5.24772 9.75097 5.50819 9.75097C5.5899 9.75097 5.67161 9.76135 5.75333 9.77691C6.24872 9.88586 6.7288 10.1349 7.00458 10.2075C7.04033 10.2179 7.07098 10.2231 7.10673 10.2231C7.25483 10.2231 7.3059 10.1453 7.29569 9.97406C7.26505 9.42412 7.18844 8.35538 7.27526 7.35409C7.39273 5.97925 7.82683 5.29442 8.34776 4.69261C8.59801 4.40208 9.76755 3.14656 12.0096 3.14656C14.2516 3.14656 15.4212 4.39689 15.6714 4.68742C16.1924 5.28923 16.6265 5.97406 16.7439 7.3489C16.8308 8.35019 16.7541 9.41894 16.7184 9.96887C16.7082 10.1505 16.7593 10.2179 16.9074 10.2179C16.9431 10.2179 16.9738 10.2127 17.0095 10.2023C17.2853 10.1349 17.7654 9.88068 18.2608 9.77173C18.3425 9.75097 18.4242 9.74579 18.5059 9.74579C18.7664 9.74579 19.0166 9.84955 19.1188 10.1193C19.2669 10.5136 19.0677 10.8301 18.6183 11.1518C18.3476 11.3437 17.367 11.9611 17.1423 12.1686C16.9125 12.3813 16.9431 12.5473 16.9686 12.7601C16.9891 12.9364 17.4845 15.2866 20.5794 16.8067C20.7633 16.8949 21.0697 17.0869 20.5283 17.393Z" fill="white"/>
</svg>
