<svg width="24" height="24" viewBox="0 0 24 24" fill="none" xmlns="http://www.w3.org/2000/svg">
<path d="M15.2928 6.70711C15.6833 6.31658 15.6833 5.68342 15.2928 5.29289L12.707 2.70708C12.3165 2.31655 11.6833 2.31655 11.2928 2.70708L8.41409 5.58577C8.02357 5.9763 8.02357 6.60946 8.41409 6.99999L10.9999 9.5858C11.3904 9.97633 12.0236 9.97633 12.4141 9.5858L15.2928 6.70711Z" fill="white"/>
<path d="M6.99988 8.4142C6.60935 8.02368 5.97619 8.02368 5.58566 8.4142L2.70696 11.2929C2.31643 11.6834 2.31643 12.3166 2.70696 12.7071L5.29277 15.2929C5.68329 15.6835 6.31646 15.6835 6.70698 15.2929L9.58569 12.4142C9.97622 12.0237 9.97622 11.3905 9.58569 11L6.99988 8.4142Z" fill="white"/>
<path d="M8.1212 16.7072C7.73067 17.0977 7.73067 17.7308 8.1212 18.1214L11.2928 21.293C11.6833 21.6835 12.3165 21.6835 12.707 21.293L15.5857 18.4142C15.9762 18.0237 15.9762 17.3906 15.5857 17L12.4141 13.8284C12.0236 13.4379 11.3904 13.4379 10.9999 13.8284L8.1212 16.7072Z" fill="white"/>
<path d="M18.4141 15.5858C18.0236 15.9763 17.3904 15.9763 16.9999 15.5858L13.8283 12.4142C13.4378 12.0237 13.4378 11.3905 13.8283 11L16.707 8.12132C17.0976 7.7308 17.7307 7.73079 18.1212 8.12132L21.2928 11.2929C21.6834 11.6834 21.6834 12.3166 21.2928 12.7071L18.4141 15.5858Z" fill="white"/>
</svg>
