<svg width="24" height="24" viewBox="0 0 24 24" fill="none" xmlns="http://www.w3.org/2000/svg">
<path d="M15.2928 6.70714C15.6833 6.31661 15.6833 5.68345 15.2928 5.29292L12.707 2.70711C12.3165 2.31658 11.6833 2.31658 11.2928 2.70711L8.41409 5.58581C8.02357 5.97633 8.02357 6.60949 8.41409 7.00002L10.9999 9.58583C11.3904 9.97636 12.0236 9.97636 12.4141 9.58583L15.2928 6.70714Z" fill="white"/>
<path d="M6.99988 8.41423C6.60935 8.02371 5.97619 8.02371 5.58566 8.41423L2.70696 11.2929C2.31643 11.6835 2.31643 12.3166 2.70696 12.7072L5.29277 15.293C5.68329 15.6835 6.31646 15.6835 6.70698 15.293L9.58569 12.4143C9.97622 12.0237 9.97622 11.3906 9.58569 11L6.99988 8.41423Z" fill="white"/>
<path d="M8.1212 16.7072C7.73067 17.0977 7.73067 17.7309 8.1212 18.1214L11.2928 21.293C11.6833 21.6835 12.3165 21.6835 12.707 21.293L15.5857 18.4143C15.9762 18.0238 15.9762 17.3906 15.5857 17.0001L12.4141 13.8285C12.0236 13.4379 11.3904 13.4379 10.9999 13.8285L8.1212 16.7072Z" fill="white"/>
<path d="M18.4141 15.5858C18.0236 15.9764 17.3904 15.9764 16.9999 15.5858L13.8283 12.4143C13.4378 12.0237 13.4378 11.3906 13.8283 11L16.707 8.12135C17.0976 7.73083 17.7307 7.73083 18.1212 8.12135L21.2928 11.2929C21.6834 11.6835 21.6834 12.3166 21.2928 12.7072L18.4141 15.5858Z" fill="white"/>
</svg>
