<svg width="24" height="24" viewBox="0 0 24 24" fill="none" xmlns="http://www.w3.org/2000/svg">
<path d="M5.51871 4.446C7.32647 2.86828 9.62266 2.00127 11.9967 2H12C14.3743 2.00047 16.671 2.86691 18.4794 4.44436C20.2878 6.02181 21.4898 8.20738 21.8705 10.6102C22.2513 13.013 21.7859 15.4763 20.5576 17.5595C19.3293 19.6428 17.4182 21.2101 15.1662 21.9812C14.6594 22.0813 14.4789 21.7622 14.4789 21.4888C14.4789 21.3773 14.4802 21.1823 14.4819 20.9218L14.4819 20.9183C14.4854 20.3896 14.4905 19.5922 14.4905 18.6756C14.4905 17.718 14.1709 17.095 13.8133 16.7758C16.0388 16.5228 18.3787 15.6552 18.3787 11.7181C18.3937 10.6977 18.0242 9.71062 17.347 8.9626C17.4497 8.70114 17.7925 7.6587 17.2477 6.24615C17.2477 6.24615 16.4098 5.97111 14.5005 7.29707C12.8614 6.83751 11.132 6.83751 9.49291 7.29707C7.58195 5.97111 6.74238 6.24615 6.74238 6.24615C6.19923 7.6621 6.54202 8.70453 6.64469 8.9626C5.96968 9.7105 5.60091 10.6958 5.61469 11.7147C5.61469 15.6434 7.94957 16.5228 10.1718 16.7809C9.88536 17.0372 9.62538 17.4888 9.53596 18.1527C8.96631 18.4175 7.51737 18.8708 6.62647 17.3038C6.62647 17.3038 6.09823 16.3191 5.09307 16.2461C5.09307 16.2461 4.11771 16.2342 5.02517 16.8692C5.02517 16.8692 5.68093 17.1815 6.13465 18.37C6.13465 18.37 6.72251 20.2002 9.50449 19.5805C9.50638 20.0685 9.51043 20.5327 9.51355 20.8917C9.51591 21.1621 9.51774 21.3728 9.51774 21.4888C9.51774 21.7588 9.33062 22.0762 8.83384 21.9812C6.58204 21.2102 4.67114 19.6432 3.44283 17.5603C2.21451 15.4774 1.74889 13.0144 2.12919 10.6119C2.5095 8.20928 3.71095 6.02373 5.51871 4.446Z" fill="white"/>
<path d="M5.61796 16.7521C5.68255 16.7878 5.76203 16.7725 5.78356 16.7216C5.8084 16.6706 5.75872 16.6027 5.69414 16.5671C5.62956 16.5314 5.55173 16.545 5.52855 16.5976C5.50536 16.6503 5.55338 16.7165 5.61796 16.7521Z" fill="white"/>
<path d="M6.18913 17.1849C6.15483 17.2027 6.1156 17.2076 6.07814 17.1989C6.04068 17.1903 6.00733 17.1685 5.98379 17.1374C5.91921 17.0661 5.90596 16.9676 5.95563 16.9235C6.00531 16.8793 6.09474 16.8997 6.15932 16.971C6.2239 17.0423 6.23881 17.1408 6.18913 17.1849Z" fill="white"/>
<path d="M6.35986 17.6858C6.41782 17.7741 6.52215 17.8183 6.58342 17.7741C6.64303 17.73 6.64138 17.6145 6.58342 17.5279C6.52546 17.4413 6.42113 17.3989 6.35986 17.4413C6.34383 17.4572 6.33109 17.4762 6.32238 17.4972C6.31368 17.5182 6.30918 17.5408 6.30918 17.5636C6.30918 17.5864 6.31368 17.609 6.32238 17.63C6.33109 17.651 6.34383 17.67 6.35986 17.6858Z" fill="white"/>
<path d="M7.11822 18.3444C7.06357 18.4073 6.95263 18.3903 6.86155 18.3054C6.77048 18.2205 6.74894 18.1051 6.80359 18.0439C6.85823 17.9828 6.96918 17.9998 7.06357 18.083C7.15796 18.1662 7.17618 18.2833 7.11822 18.3444Z" fill="white"/>
<path d="M7.61824 18.7588C7.73084 18.7928 7.84345 18.7571 7.86829 18.6773C7.88981 18.5941 7.81695 18.5042 7.70269 18.4668C7.58843 18.4294 7.47417 18.4668 7.45264 18.5483C7.43112 18.6298 7.50563 18.7249 7.61824 18.7588Z" fill="white"/>
<path d="M8.68636 18.7349C8.68636 18.8181 8.59363 18.8894 8.4744 18.8911C8.35517 18.8928 8.25747 18.8249 8.25747 18.7417C8.25747 18.6585 8.3502 18.5872 8.46943 18.5855C8.58866 18.5838 8.68636 18.65 8.68636 18.7349Z" fill="white"/>
<path d="M9.26097 18.7945C9.3802 18.7741 9.463 18.6875 9.44809 18.6043C9.43319 18.5211 9.32555 18.4702 9.20964 18.4923C9.09372 18.5143 9.00761 18.6026 9.02251 18.6841C9.03742 18.7656 9.14174 18.8148 9.26097 18.7945Z" fill="white"/>
</svg>
