<svg width="24" height="24" viewBox="0 0 24 24" fill="none" xmlns="http://www.w3.org/2000/svg">
<path fill-rule="evenodd" clip-rule="evenodd" d="M3.40333 3.40333C2 4.80667 2 7.066 2 11.5833V12.4167C2 16.9333 2 19.1933 3.40333 20.5967C4.80667 22 7.066 22 11.5833 22H12.4167C16.9333 22 19.1933 22 20.5967 20.5967C22 19.1933 22 16.934 22 12.4167V11.5833C22 7.06667 22 4.80667 20.5967 3.40333C19.1933 2 16.934 2 12.4167 2H11.5833C7.06667 2 4.80667 2 3.40333 3.40333ZM5.95866 8.25H7.41666C7.78933 8.25 7.92933 8.41333 8.06933 8.81733C8.78266 10.8947 9.98532 12.7107 10.4793 12.7107C10.6653 12.7107 10.75 12.6253 10.75 12.154V10.0067C10.7166 9.39538 10.503 9.13096 10.3449 8.93511C10.2472 8.81421 10.1707 8.71944 10.1707 8.58533C10.1707 8.422 10.31 8.25 10.5413 8.25H12.8333C13.1427 8.25 13.25 8.41533 13.25 8.786V11.6753C13.25 11.984 13.384 12.0927 13.4767 12.0927C13.662 12.0927 13.8167 11.984 14.1567 11.644C15.2073 10.47 15.9487 8.66267 15.9487 8.66267C16.0413 8.446 16.2127 8.25 16.5833 8.25H18.0413C18.4827 8.25 18.576 8.47733 18.4827 8.786C18.2973 9.636 16.5207 12.1387 16.5207 12.1387C16.366 12.386 16.304 12.5093 16.5207 12.7873C16.5971 12.8944 16.7602 13.0543 16.9467 13.2371C17.1375 13.4241 17.3527 13.6351 17.5247 13.838C18.1513 14.5427 18.6233 15.1373 18.7547 15.5467C18.8753 15.958 18.6667 16.1667 18.25 16.1667H16.7913C16.4008 16.1667 16.2043 15.948 15.7794 15.475C15.5994 15.2746 15.3783 15.0285 15.084 14.734C14.218 13.9 13.848 13.792 13.6313 13.792C13.338 13.792 13.25 13.8753 13.25 14.292V15.6C13.25 15.958 13.1353 16.1667 12.208 16.1667C10.6633 16.1667 8.96532 15.2287 7.76066 13.498C5.95266 10.9647 5.45866 9.04867 5.45866 8.66267C5.45866 8.446 5.54199 8.25 5.95866 8.25Z" fill="white"/>
</svg>
